<?xml version="1.0" encoding="utf-8"?>
<svg width="142px" height="32px" viewBox="0 0 142 32" version="1.1" xmlns:xlink="http://www.w3.org/1999/xlink" xmlns="http://www.w3.org/2000/svg">
  <defs>
    <path d="M0 0L80 0L80 24L0 24L0 0Z" id="path_1" />
    <rect width="142" height="32" id="artboard_1" />
    <clipPath id="clip_1">
      <use xlink:href="#artboard_1" clip-rule="evenodd" />
    </clipPath>
    <clipPath id="mask_1">
      <use xlink:href="#path_1" />
    </clipPath>
  </defs>
  <g id="Artboard" clip-path="url(#clip_1)">
    <g id="on_platform_logo_dark" transform="translate(1 4)">
      <path d="M0 0L80 0L80 24L0 24L0 0Z" id="Background" fill="none" fill-rule="evenodd" stroke="none" />
      <g clip-path="url(#mask_1)">
        <path d="M0 12C0 5.37258 5.45317 0 12.18 0C18.9068 0 24.36 5.37258 24.36 12C24.36 18.6274 18.9068 24 12.18 24C5.45317 24 0 18.6274 0 12Z" id="Ellipse" fill="#FF0000" fill-rule="evenodd" stroke="none" />
        <path d="M0 7.2C0 3.22355 3.2719 0 7.308 0C11.3441 0 14.616 3.22355 14.616 7.2C14.616 11.1764 11.3441 14.4 7.308 14.4C3.2719 14.4 0 11.1764 0 7.2Z" transform="translate(4.872 4.8)" id="Ellipse" fill="#FF0000" fill-rule="evenodd" stroke="#FFFFFF" stroke-width="1.2" />
        <path d="M0 13.229L6.327 9.685L9.53674e-07 6.139L9.53674e-07 13.229L0 13.229ZM27.689 7.326C27.11 10.179 26.67 13.662 26.439 15.1L26.276 15.1C26.089 13.618 25.649 10.158 25.049 7.35L23.566 0.361L19.046 0.361L19.046 19.211L21.849 19.211L21.849 3.671L22.126 5.122L24.976 19.208L27.78 19.208L30.583 5.122L30.883 3.663L30.883 19.21L33.687 19.21L33.687 0.36L29.124 0.36L27.689 7.326L27.689 7.326ZM41.266 16.38C41.01 16.897 40.456 17.256 39.898 17.256C39.25 17.256 38.994 16.762 38.994 15.55L38.994 5.438L35.796 5.438L35.796 15.728C35.796 18.268 36.652 19.434 38.554 19.434C39.85 19.434 40.892 18.872 41.612 17.525L41.682 17.525L41.959 19.209L44.461 19.209L44.461 5.439L41.263 5.439L41.263 16.379L41.266 16.379L41.266 16.38ZM50.648 10.874C49.605 10.132 48.957 9.638 48.957 8.56C48.957 7.797 49.327 7.37 50.207 7.37C51.112 7.37 51.413 7.975 51.434 10.044L54.123 9.933C54.331 6.587 53.195 5.193 50.253 5.193C47.52 5.193 46.175 6.383 46.175 8.831C46.175 11.055 47.288 12.066 49.095 13.393C50.648 14.562 51.552 15.213 51.552 16.157C51.552 16.877 51.088 17.37 50.277 17.37C49.327 17.37 48.77 16.493 48.912 14.965L46.202 15.009C45.783 17.861 46.968 19.524 50.117 19.524C52.875 19.524 54.312 18.288 54.312 15.818C54.309 13.571 53.152 12.671 50.648 10.874L50.648 10.874ZM59.128 5.438L56.069 5.438L56.069 19.208L59.129 19.208L59.129 5.439L59.128 5.438ZM57.621 0C56.441 0 55.883 0.427 55.883 1.911C55.883 3.439 56.437 3.82 57.622 3.82C58.827 3.82 59.36 3.437 59.36 1.911C59.36 0.497 58.827 2.38419e-07 57.621 2.38419e-07L57.621 0ZM69.414 14.244L66.611 14.109C66.611 16.535 66.334 17.321 65.385 17.321C64.435 17.321 64.272 16.444 64.272 13.591L64.272 10.921C64.272 8.156 64.459 7.282 65.409 7.282C66.289 7.282 66.521 8.112 66.521 10.675L69.299 10.497C69.486 8.363 69.206 6.902 68.35 6.072C67.723 5.464 66.774 5.175 65.454 5.175C62.35 5.175 61.075 6.793 61.075 11.329L61.075 13.261C61.075 17.934 62.163 19.439 65.339 19.439C66.683 19.439 67.609 19.169 68.235 18.585C69.137 17.771 69.484 16.38 69.415 14.244L69.414 14.244Z" transform="translate(9.744 2.316)" id="Shape" fill="#FFFFFF" fill-rule="evenodd" stroke="none" />
      </g>
    </g>
    <g id="Desktop" fill="#FFFFFF" transform="translate(84 -1)">
      <path d="M26.6465 26.8027L26.6465 6.63672L28.2734 6.63672L28.2734 18.873L28.3281 18.873L31.5547 12.2422L33.2227 12.2422L29.8457 19.1602L33.5918 26.8027L31.7734 26.8027L28.3281 19.666L28.2734 19.666L28.2734 26.8027L26.6465 26.8027ZM3.86914 7.48438Q6.35742 7.48438 7.46484 9.74023Q8.57227 11.9961 8.57227 17.1436Q8.57227 22.291 7.46484 24.5469Q6.35742 26.8027 3.86914 26.8027L1.39453 26.8027L1.39453 7.48438L3.86914 7.48438ZM38.377 27.0762Q39.0742 27.0762 39.7168 26.8027L39.7168 25.2578Q39.1836 25.5723 38.6504 25.5723Q38.0078 25.5723 37.7549 25.1963Q37.502 24.8203 37.502 23.7813L37.502 13.7051L39.6621 13.7051L39.6621 12.2422L37.502 12.2422L37.502 8.31836L35.8887 8.63281L35.8887 12.2422L34.0293 12.2422L34.0293 13.7051L35.8887 13.7051L35.8887 24Q35.8887 27.0762 38.377 27.0762ZM3.77344 25.2305Q5.42773 25.2305 6.13184 23.3984Q6.83594 21.5664 6.83594 17.1436Q6.83594 12.7207 6.13184 10.8887Q5.42773 9.05664 3.77344 9.05664L3.07617 9.05664L3.07617 25.2305L3.77344 25.2305ZM16.9668 19.5293L16.9668 19.748L12.0039 19.748Q12.0039 23.0566 12.373 24.3145Q12.7422 25.5723 13.7129 25.5723Q15.0801 25.5723 15.2578 22.9336L16.8574 22.9336Q16.6934 25.0664 15.9209 26.0713Q15.1484 27.0762 13.6855 27.0762Q11.8672 27.0762 11.0947 25.3604Q10.3223 23.6445 10.3223 19.5225Q10.3223 15.4004 11.0947 13.6846Q11.8672 11.9688 13.6582 11.9688Q15.4492 11.9688 16.208 13.6914Q16.9668 15.4141 16.9668 19.5293ZM21.5537 27.0762Q23.0918 27.0762 23.9053 26.0986Q24.7188 25.1211 24.7188 23.248Q24.7188 20.6641 22.1758 18.6543Q20.1797 17.082 20.1797 15.3184Q20.1797 13.4727 21.4922 13.4727Q22.8457 13.4727 22.9551 15.9883L24.5273 15.9883Q24.3496 11.9688 21.4922 11.9688Q20.125 11.9688 19.3389 12.8711Q18.5527 13.7734 18.5527 15.373Q18.5664 17.957 21.1094 19.9668Q23.0918 21.5391 23.0918 23.3027Q23.1013 24.8861 22.3789 25.3648Q22.0658 25.5723 21.6152 25.5723Q20.7949 25.5723 20.4189 24.875Q20.043 24.1777 19.9883 22.4961L18.416 22.4961Q18.4707 24.9023 19.2432 25.9893Q20.0156 27.0762 21.5537 27.0762ZM47.0654 25.374Q46.3066 27.0762 44.4609 27.0762Q42.6152 27.0762 41.8633 25.374Q41.1113 23.6719 41.1113 19.5225Q41.1113 15.373 41.8633 13.6709Q42.6152 11.9688 44.4609 11.9688Q46.3066 11.9688 47.0654 13.6709Q47.8242 15.373 47.8242 19.5225Q47.8242 23.6719 47.0654 25.374ZM49.9707 12.2422L49.9707 31.8477L51.5977 31.8477L51.5977 25.5723L51.6523 25.5723Q52.2539 27.0762 53.7031 27.0762Q55.2344 27.0762 55.9385 25.2988Q56.6426 23.5215 56.6426 19.5225Q56.6426 15.5234 55.9385 13.7461Q55.2344 11.9688 53.6963 11.9688Q52.1582 11.9688 51.543 13.7871L51.4883 13.7871L51.3105 12.2422L49.9707 12.2422ZM12.0039 18.2852L15.4219 18.2852Q15.3672 15.5645 14.9912 14.5186Q14.6152 13.4727 13.7197 13.4727Q12.8242 13.4727 12.4414 14.5186Q12.0586 15.5645 12.0039 18.2852ZM43.1484 24.2666Q43.5176 25.5723 44.4678 25.5723Q45.418 25.5723 45.7803 24.2666Q46.1426 22.9609 46.1426 19.5225Q46.1426 16.084 45.7803 14.7783Q45.418 13.4727 44.4678 13.4727Q43.5176 13.4727 43.1484 14.7783Q42.7793 16.084 42.7793 19.5225Q42.7793 22.9609 43.1484 24.2666ZM54.5781 24.1846Q54.1953 25.5723 53.334 25.5723Q51.5977 25.5723 51.5977 20.9512L51.5977 18.0938Q51.5977 13.4727 53.334 13.4727Q54.1953 13.4727 54.5781 14.8604Q54.9609 16.248 54.9609 19.5225Q54.9609 22.7969 54.5781 24.1846Z" />
    </g>
  </g>
</svg>